<svg width="400" height="148" viewBox="0 0 400 148" fill="none" xmlns="http://www.w3.org/2000/svg">
<path d="M139.479 51.6454C139.469 51.6077 139.448 51.5747 139.434 51.5383C139.41 51.4711 139.388 51.403 139.353 51.3413C139.329 51.2998 139.294 51.2659 139.266 51.2278C139.228 51.1777 139.197 51.1242 139.152 51.0801C139.116 51.0433 139.069 51.0167 139.028 50.9846C138.981 50.9482 138.94 50.9066 138.888 50.8767C138.888 50.8767 138.887 50.8767 138.887 50.8762C138.887 50.8762 138.887 50.8758 138.886 50.8754L123.619 42.0856C123.227 41.8595 122.743 41.8595 122.35 42.0856L107.084 50.8745C107.083 50.8745 107.083 50.8749 107.083 50.8754C107.082 50.8754 107.082 50.8754 107.082 50.8758C107.03 50.9058 106.988 50.9473 106.942 50.9837C106.901 51.0158 106.854 51.0428 106.818 51.0792C106.774 51.1233 106.741 51.1769 106.704 51.227C106.676 51.2651 106.641 51.2994 106.617 51.3405C106.582 51.4021 106.56 51.4707 106.535 51.5375C106.522 51.5739 106.501 51.6068 106.491 51.6445C106.462 51.7512 106.447 51.863 106.447 51.9769V68.6702L93.7247 75.9949V43.3375C93.7247 43.224 93.7093 43.1122 93.6806 43.0051C93.6703 42.9674 93.6494 42.9345 93.6361 42.8981C93.6112 42.8308 93.5898 42.7627 93.5543 42.7011C93.5303 42.6595 93.4956 42.6257 93.4673 42.5876C93.4301 42.5375 93.3984 42.4839 93.3539 42.4398C93.3174 42.403 93.2708 42.3764 93.2297 42.3443C93.183 42.3079 93.1414 42.2664 93.0896 42.2364C93.0896 42.2364 93.0892 42.2364 93.0888 42.236C93.0883 42.236 93.0883 42.2355 93.0879 42.2351L77.8215 33.4458C77.4288 33.2197 76.9449 33.2197 76.5521 33.4458L61.2858 42.2351C61.2853 42.2351 61.2853 42.2355 61.2849 42.236C61.2845 42.236 61.284 42.236 61.284 42.2364C61.2322 42.2664 61.1902 42.3079 61.144 42.3443C61.1029 42.3764 61.0562 42.4034 61.0198 42.4398C60.9757 42.4839 60.9436 42.5375 60.9063 42.5876C60.878 42.6257 60.8434 42.66 60.8194 42.7011C60.7838 42.7627 60.7624 42.8313 60.7376 42.8981C60.7243 42.9345 60.7033 42.9674 60.693 43.0051C60.6643 43.1118 60.6489 43.2236 60.6489 43.3375V95.6244C60.6489 96.0797 60.8922 96.4998 61.2866 96.7272L91.8189 114.305C91.8858 114.343 91.9577 114.367 92.0288 114.392C92.0622 114.404 92.093 114.424 92.1273 114.433C92.2339 114.461 92.344 114.475 92.4536 114.475C92.5633 114.475 92.6729 114.461 92.78 114.433C92.8095 114.425 92.8365 114.407 92.8656 114.397C92.941 114.371 93.0172 114.346 93.0879 114.305L123.62 96.7272C124.015 96.5002 124.258 96.0797 124.258 95.6244V78.931L138.887 70.5088C139.281 70.2818 139.524 69.8612 139.524 69.406V51.9769C139.523 51.8638 139.508 51.752 139.479 51.6454ZM92.4498 94.1615L79.7526 86.9756L93.087 79.2985C93.087 79.2985 93.087 79.2985 93.0875 79.2981L107.719 70.8745L120.427 78.191L111.103 83.5135L92.4498 94.1615ZM121.713 61.5024V75.9953L116.37 72.9195L108.991 68.6711V54.1782L114.333 57.254L121.713 61.5024ZM122.985 44.6565L135.701 51.9777L122.985 59.2989L110.268 51.9777L122.985 44.6565ZM83.801 81.7084L78.4583 84.7841V52.8621L85.8378 48.6137L91.1804 45.5379V77.4595L83.801 81.7084ZM77.186 36.0163L89.9025 43.3375L77.186 50.6587L64.4695 43.3375L77.186 36.0163ZM63.192 45.5383L68.5346 48.6141L75.914 52.8625V86.985C75.914 86.9859 75.9144 86.9863 75.9144 86.9872C75.9144 86.988 75.914 86.9889 75.914 86.9897C75.914 87.0385 75.9277 87.0844 75.9333 87.1323C75.9406 87.1949 75.9423 87.2582 75.9586 87.3182C75.959 87.3191 75.959 87.3203 75.9594 87.3212C75.9731 87.3713 75.9997 87.4163 76.0194 87.4642C76.0412 87.5173 76.0571 87.5734 76.0862 87.6231C76.0866 87.6244 76.087 87.6257 76.0879 87.627C76.114 87.6719 76.1517 87.7088 76.183 87.7503C76.2177 87.7953 76.2468 87.8445 76.2875 87.8848C76.2888 87.8861 76.2896 87.8878 76.2909 87.8891C76.3269 87.9246 76.3723 87.9499 76.4125 87.9812C76.4579 88.0167 76.499 88.0574 76.5496 88.0869C76.5513 88.0878 76.5534 88.0882 76.5551 88.0891C76.5568 88.0899 76.5581 88.0916 76.5598 88.0925L91.1804 96.367V111.003L63.1924 94.8895V45.5383H63.192ZM121.713 94.8895L93.7247 111.003V96.364L114.452 84.5319L121.713 80.3876V94.8895ZM136.979 68.6711L124.257 75.9953V61.5024L131.636 57.254L136.979 54.1782V68.6711Z" fill="#EF3B2D"/>
<path d="M155.764 69.614C155.764 81.386 163.424 89.594 174.038 89.594C184.652 89.594 192.311 81.386 192.311 69.614C192.311 57.842 184.652 49.634 174.038 49.634C163.424 49.634 155.764 57.842 155.764 69.614ZM185.308 69.614C185.308 78.038 180.658 83.492 174.038 83.492C167.418 83.492 162.767 78.038 162.767 69.614C162.767 61.19 167.418 55.736 174.038 55.736C180.658 55.736 185.308 61.19 185.308 69.614Z" fill="#EF3B2D"/>
<path d="M212.033 89.594C220.075 89.594 224.671 82.898 224.671 74.852C224.671 66.806 220.075 60.11 212.033 60.11C208.312 60.11 205.577 61.568 203.771 63.674V60.65H197.206V98.72H203.771V86.03C205.577 88.136 208.312 89.594 212.033 89.594ZM203.607 74.042C203.607 68.696 206.671 65.78 210.72 65.78C215.48 65.78 218.051 69.452 218.051 74.852C218.051 80.252 215.48 83.924 210.72 83.924C206.671 83.924 203.607 80.954 203.607 75.716V74.042Z" fill="#EF3B2D"/>
<path d="M242.439 89.594C248.184 89.594 252.725 86.624 254.749 81.656L249.114 79.55C248.238 82.466 245.667 84.086 242.439 84.086C238.226 84.086 235.272 81.116 234.779 76.256H254.913V74.096C254.913 66.32 250.481 60.11 242.165 60.11C233.849 60.11 228.487 66.536 228.487 74.852C228.487 83.6 234.232 89.594 242.439 89.594ZM242.111 65.564C246.269 65.564 248.238 68.264 248.293 71.396H235.107C236.092 67.562 238.718 65.564 242.111 65.564Z" fill="#EF3B2D"/>
<path d="M259.84 89H266.405V72.368C266.405 68.318 269.414 66.158 272.369 66.158C275.98 66.158 277.402 68.696 277.402 72.206V89H283.968V70.316C283.968 64.214 280.357 60.11 274.338 60.11C270.618 60.11 268.046 61.784 266.405 63.674V60.65H259.84V89Z" fill="#EF3B2D"/>
<path d="M303.196 50.228L288.315 89H295.263L298.601 80.144H315.561L318.953 89H326.011L311.13 50.228H303.196ZM307.026 57.896L313.263 74.096H300.898L307.026 57.896Z" fill="#EF3B2D"/>
<path d="M337.282 50.3405H330.279V89.1125H337.282V50.3405Z" fill="#EF3B2D"/>
</svg>
