<svg width="400" height="148" viewBox="0 0 400 148" fill="none" xmlns="http://www.w3.org/2000/svg">
<path d="M139.479 51.6454C139.469 51.6077 139.448 51.5747 139.434 51.5383C139.41 51.4711 139.388 51.403 139.353 51.3413C139.329 51.2998 139.294 51.2659 139.266 51.2278C139.228 51.1777 139.197 51.1242 139.152 51.0801C139.116 51.0433 139.069 51.0167 139.028 50.9846C138.981 50.9482 138.94 50.9066 138.888 50.8767C138.888 50.8767 138.887 50.8767 138.887 50.8762C138.887 50.8762 138.887 50.8758 138.886 50.8754L123.619 42.0856C123.227 41.8595 122.743 41.8595 122.35 42.0856L107.084 50.8745C107.083 50.8745 107.083 50.8749 107.083 50.8754C107.082 50.8754 107.082 50.8754 107.082 50.8758C107.03 50.9058 106.988 50.9473 106.942 50.9837C106.901 51.0158 106.854 51.0428 106.818 51.0792C106.774 51.1233 106.741 51.1769 106.704 51.227C106.676 51.2651 106.641 51.2994 106.617 51.3405C106.582 51.4021 106.56 51.4707 106.535 51.5375C106.522 51.5739 106.501 51.6068 106.491 51.6445C106.462 51.7512 106.447 51.863 106.447 51.9769V68.6702L93.7247 75.9949V43.3375C93.7247 43.224 93.7093 43.1122 93.6806 43.0051C93.6703 42.9674 93.6494 42.9345 93.6361 42.8981C93.6112 42.8308 93.5898 42.7627 93.5543 42.7011C93.5303 42.6595 93.4956 42.6257 93.4673 42.5876C93.4301 42.5375 93.3984 42.4839 93.3539 42.4398C93.3174 42.403 93.2708 42.3764 93.2297 42.3443C93.183 42.3079 93.1414 42.2664 93.0896 42.2364C93.0896 42.2364 93.0892 42.2364 93.0888 42.236C93.0883 42.236 93.0883 42.2355 93.0879 42.2351L77.8215 33.4458C77.4288 33.2197 76.9449 33.2197 76.5521 33.4458L61.2858 42.2351C61.2853 42.2351 61.2853 42.2355 61.2849 42.236C61.2845 42.236 61.284 42.236 61.284 42.2364C61.2322 42.2664 61.1902 42.3079 61.144 42.3443C61.1029 42.3764 61.0562 42.4034 61.0198 42.4398C60.9757 42.4839 60.9436 42.5375 60.9063 42.5876C60.878 42.6257 60.8434 42.66 60.8194 42.7011C60.7838 42.7627 60.7624 42.8313 60.7376 42.8981C60.7243 42.9345 60.7033 42.9674 60.693 43.0051C60.6643 43.1118 60.6489 43.2236 60.6489 43.3375V95.6244C60.6489 96.0797 60.8922 96.4998 61.2866 96.7272L91.8189 114.305C91.8858 114.343 91.9577 114.367 92.0288 114.392C92.0622 114.404 92.093 114.424 92.1273 114.433C92.2339 114.461 92.344 114.475 92.4536 114.475C92.5633 114.475 92.6729 114.461 92.78 114.433C92.8095 114.425 92.8365 114.407 92.8656 114.397C92.941 114.371 93.0172 114.346 93.0879 114.305L123.62 96.7272C124.015 96.5002 124.258 96.0797 124.258 95.6244V78.931L138.887 70.5088C139.281 70.2818 139.524 69.8612 139.524 69.406V51.9769C139.523 51.8638 139.508 51.752 139.479 51.6454ZM92.4498 94.1615L79.7526 86.9756L93.087 79.2985C93.087 79.2985 93.087 79.2985 93.0875 79.2981L107.719 70.8745L120.427 78.191L111.103 83.5135L92.4498 94.1615ZM121.713 61.5024V75.9953L116.37 72.9195L108.991 68.6711V54.1782L114.333 57.254L121.713 61.5024ZM122.985 44.6565L135.701 51.9777L122.985 59.2989L110.268 51.9777L122.985 44.6565ZM83.801 81.7084L78.4583 84.7841V52.8621L85.8378 48.6137L91.1804 45.5379V77.4595L83.801 81.7084ZM77.186 36.0163L89.9025 43.3375L77.186 50.6587L64.4695 43.3375L77.186 36.0163ZM63.192 45.5383L68.5346 48.6141L75.914 52.8625V86.985C75.914 86.9859 75.9144 86.9863 75.9144 86.9872C75.9144 86.988 75.914 86.9889 75.914 86.9897C75.914 87.0385 75.9277 87.0844 75.9333 87.1323C75.9406 87.1949 75.9423 87.2582 75.9586 87.3182C75.959 87.3191 75.959 87.3203 75.9594 87.3212C75.9731 87.3713 75.9997 87.4163 76.0194 87.4642C76.0412 87.5173 76.0571 87.5734 76.0862 87.6231C76.0866 87.6244 76.087 87.6257 76.0879 87.627C76.114 87.6719 76.1517 87.7088 76.183 87.7503C76.2177 87.7953 76.2468 87.8445 76.2875 87.8848C76.2888 87.8861 76.2896 87.8878 76.2909 87.8891C76.3269 87.9246 76.3723 87.9499 76.4125 87.9812C76.4579 88.0167 76.499 88.0574 76.5496 88.0869C76.5513 88.0878 76.5534 88.0882 76.5551 88.0891C76.5568 88.0899 76.5581 88.0916 76.5598 88.0925L91.1804 96.367V111.003L63.1924 94.8895V45.5383H63.192ZM121.713 94.8895L93.7247 111.003V96.364L114.452 84.5319L121.713 80.3876V94.8895ZM136.979 68.6711L124.257 75.9953V61.5024L131.636 57.254L136.979 54.1782V68.6711Z" fill="#EF3B2D"/>
<path d="M286.956 88.6176V50.4964H292.615V56.4528H293.111C293.905 54.4177 295.188 52.8376 296.958 51.7125C298.728 50.5708 300.854 50 303.336 50C305.851 50 307.944 50.5708 309.615 51.7125C311.303 52.8376 312.618 54.4177 313.561 56.4528H313.959C314.935 54.4839 316.399 52.9203 318.351 51.7621C320.304 50.5874 322.645 50 325.375 50C328.783 50 331.571 51.0672 333.739 53.2016C335.906 55.3194 336.99 58.6203 336.99 63.1042V88.6176H331.133V63.1042C331.133 60.2914 330.364 58.2811 328.825 57.0733C327.286 55.8654 325.474 55.2615 323.39 55.2615C320.709 55.2615 318.633 56.0723 317.16 57.6937C315.688 59.2987 314.951 61.3338 314.951 63.7991V88.6176H308.995V62.5085C308.995 60.341 308.292 58.5955 306.885 57.2718C305.479 55.9316 303.667 55.2615 301.45 55.2615C299.928 55.2615 298.505 55.6669 297.181 56.4776C295.874 57.2884 294.815 58.4135 294.004 59.8529C293.21 61.2759 292.813 62.9222 292.813 64.7918V88.6176H286.956Z" fill="#EF3B2D"/>
<path d="M270.371 73.0316V50.4964H276.228V88.6176H270.371V82.1648H269.974C269.08 84.1006 267.691 85.7469 265.804 87.1036C263.918 88.4438 261.536 89.1139 258.657 89.1139C256.274 89.1139 254.156 88.5927 252.303 87.5504C250.45 86.4914 248.994 84.9031 247.935 82.7852C246.876 80.6508 246.347 77.9622 246.347 74.7192V50.4964H252.204V74.3221C252.204 77.1018 252.981 79.3189 254.537 80.9735C256.109 82.628 258.111 83.4553 260.543 83.4553C261.999 83.4553 263.48 83.083 264.985 82.3385C266.508 81.5939 267.782 80.4523 268.807 78.9135C269.85 77.3748 270.371 75.4141 270.371 73.0316Z" fill="#EF3B2D"/>
<path d="M211.322 65.6853V88.6176H205.464V50.4964H211.123V56.4528H211.619C212.513 54.517 213.87 52.9617 215.69 51.7869C217.51 50.5956 219.859 50 222.738 50C225.319 50 227.578 50.5295 229.513 51.5884C231.449 52.6308 232.955 54.2191 234.03 56.3535C235.106 58.4714 235.644 61.1518 235.644 64.3947V88.6176H229.786V64.7918C229.786 61.7971 229.009 59.4641 227.454 57.793C225.898 56.1053 223.764 55.2615 221.05 55.2615C219.181 55.2615 217.51 55.6669 216.037 56.4776C214.581 57.2884 213.431 58.4714 212.587 60.0267C211.743 61.582 211.322 63.4682 211.322 65.6853Z" fill="#EF3B2D"/>
<path d="M180.77 89.4118C177.097 89.4118 173.928 88.601 171.265 86.9795C168.617 85.3415 166.574 83.0582 165.134 80.1296C163.711 77.1845 163 73.7596 163 69.8548C163 65.95 163.711 62.5085 165.134 59.5303C166.574 56.5355 168.576 54.2026 171.14 52.5315C173.722 50.8438 176.733 50 180.174 50C182.16 50 184.121 50.3309 186.056 50.9927C187.992 51.6546 189.754 52.73 191.343 54.2191C192.931 55.6917 194.197 57.6441 195.14 60.0763C196.083 62.5085 196.555 65.5033 196.555 69.0606V71.5424H167.17V66.4795H190.598C190.598 64.3285 190.168 62.4092 189.308 60.7216C188.464 59.0339 187.256 57.702 185.684 56.7258C184.129 55.7496 182.292 55.2615 180.174 55.2615C177.841 55.2615 175.823 55.8406 174.119 56.9988C172.431 58.1405 171.132 59.6296 170.222 61.4661C169.312 63.3027 168.857 65.2716 168.857 67.3729V70.7483C168.857 73.6272 169.354 76.0677 170.346 78.0697C171.356 80.0552 172.754 81.5691 174.541 82.6115C176.328 83.6373 178.404 84.1502 180.77 84.1502C182.309 84.1502 183.699 83.9351 184.94 83.505C186.197 83.0582 187.281 82.3964 188.191 81.5195C189.101 80.626 189.804 79.5175 190.3 78.1938L195.959 79.7822C195.363 81.7015 194.362 83.3891 192.956 84.8452C191.55 86.2846 189.812 87.4097 187.744 88.2205C185.676 89.0147 183.351 89.4118 180.77 89.4118Z" fill="#EF3B2D"/>
</svg>
