<svg width="400" height="148" viewBox="0 0 400 148" fill="none" xmlns="http://www.w3.org/2000/svg">
<path d="M336.911 70.017V72.3068C334.855 72.3068 333.415 72.7377 332.59 73.5994C331.777 74.4612 331.371 75.9015 331.371 77.9205V83.8295C331.371 85.5284 331.205 86.9995 330.872 88.2429C330.552 89.4863 330.023 90.5142 329.284 91.3267C328.546 92.1392 327.561 92.7424 326.33 93.1364C325.099 93.5303 323.578 93.7273 321.769 93.7273V90.108C323.197 90.108 324.317 89.8802 325.13 89.4247C325.954 88.9815 326.533 88.2983 326.865 87.375C327.21 86.4517 327.382 85.2699 327.382 83.8295V76.4432C327.382 75.483 327.506 74.6089 327.752 73.821C328.01 73.0331 328.478 72.3561 329.155 71.7898C329.832 71.2235 330.792 70.7865 332.036 70.4787C333.292 70.1709 334.917 70.017 336.911 70.017ZM321.769 46.4545C323.578 46.4545 325.099 46.6515 326.33 47.0455C327.561 47.4394 328.546 48.0426 329.284 48.8551C330.023 49.6676 330.552 50.6956 330.872 51.9389C331.205 53.1823 331.371 54.6534 331.371 56.3523V62.2614C331.371 64.2803 331.777 65.7206 332.59 66.5824C333.415 67.4441 334.855 67.875 336.911 67.875V70.1648C334.917 70.1648 333.292 70.0109 332.036 69.7031C330.792 69.3954 329.832 68.9583 329.155 68.392C328.478 67.8258 328.01 67.1487 327.752 66.3608C327.506 65.5729 327.382 64.6989 327.382 63.7386V56.3523C327.382 54.9119 327.21 53.7301 326.865 52.8068C326.533 51.8712 325.954 51.1818 325.13 50.7386C324.317 50.2955 323.197 50.0739 321.769 50.0739V46.4545ZM336.911 67.875V72.3068H332.553V67.875H336.911Z" fill="#EF3B2D"/>
<path d="M315.412 51.1818V89H310.98L290.372 59.3068H290.003V89H285.423V51.1818H289.855L310.537 80.9489H310.906V51.1818H315.412Z" fill="#EF3B2D"/>
<path d="M277.723 70.0909C277.723 74.0795 277.003 77.5265 275.563 80.4318C274.122 83.3371 272.146 85.5776 269.635 87.1534C267.124 88.7292 264.255 89.517 261.03 89.517C257.804 89.517 254.936 88.7292 252.425 87.1534C249.913 85.5776 247.938 83.3371 246.497 80.4318C245.057 77.5265 244.337 74.0795 244.337 70.0909C244.337 66.1023 245.057 62.6553 246.497 59.75C247.938 56.8447 249.913 54.6042 252.425 53.0284C254.936 51.4526 257.804 50.6648 261.03 50.6648C264.255 50.6648 267.124 51.4526 269.635 53.0284C272.146 54.6042 274.122 56.8447 275.563 59.75C277.003 62.6553 277.723 66.1023 277.723 70.0909ZM273.291 70.0909C273.291 66.8163 272.743 64.0526 271.648 61.7997C270.564 59.5469 269.093 57.8418 267.234 56.6847C265.388 55.5275 263.32 54.9489 261.03 54.9489C258.74 54.9489 256.666 55.5275 254.807 56.6847C252.96 57.8418 251.489 59.5469 250.393 61.7997C249.31 64.0526 248.768 66.8163 248.768 70.0909C248.768 73.3655 249.31 76.1293 250.393 78.3821C251.489 80.6349 252.96 82.34 254.807 83.4972C256.666 84.6543 258.74 85.2329 261.03 85.2329C263.32 85.2329 265.388 84.6543 267.234 83.4972C269.093 82.34 270.564 80.6349 271.648 78.3821C272.743 76.1293 273.291 73.3655 273.291 70.0909Z" fill="#EF3B2D"/>
<path d="M233.336 60.6364C233.114 58.7651 232.215 57.3125 230.64 56.2784C229.064 55.2443 227.131 54.7273 224.841 54.7273C223.167 54.7273 221.702 54.9981 220.446 55.5398C219.203 56.0814 218.231 56.8262 217.529 57.7741C216.839 58.7221 216.495 59.7992 216.495 61.0057C216.495 62.0151 216.735 62.883 217.215 63.6094C217.707 64.3234 218.335 64.9204 219.098 65.4006C219.862 65.8684 220.662 66.2561 221.499 66.5639C222.336 66.8594 223.106 67.0994 223.807 67.2841L227.648 68.3182C228.633 68.5767 229.729 68.9337 230.935 69.3892C232.154 69.8447 233.317 70.4664 234.425 71.2543C235.545 72.0298 236.469 73.027 237.195 74.2457C237.921 75.4645 238.284 76.9602 238.284 78.7329C238.284 80.7765 237.749 82.6231 236.678 84.2727C235.619 85.9223 234.068 87.2334 232.025 88.206C229.993 89.1785 227.525 89.6648 224.62 89.6648C221.911 89.6648 219.566 89.2277 217.584 88.3537C215.615 87.4796 214.063 86.2609 212.931 84.6974C211.811 83.134 211.177 81.3182 211.029 79.25H215.756C215.879 80.678 216.359 81.8598 217.196 82.7954C218.046 83.7187 219.117 84.4081 220.409 84.8636C221.714 85.3068 223.118 85.5284 224.62 85.5284C226.368 85.5284 227.937 85.2453 229.329 84.679C230.72 84.1004 231.821 83.3002 232.634 82.2784C233.446 81.2443 233.853 80.0379 233.853 78.6591C233.853 77.4034 233.502 76.3816 232.8 75.5937C232.098 74.8059 231.175 74.1657 230.03 73.6733C228.885 73.1809 227.648 72.75 226.319 72.3807L221.665 71.0511C218.711 70.2017 216.372 68.9891 214.648 67.4133C212.925 65.8376 212.063 63.7756 212.063 61.2273C212.063 59.1098 212.635 57.2632 213.78 55.6875C214.937 54.0994 216.489 52.8684 218.434 51.9943C220.391 51.1079 222.576 50.6648 224.989 50.6648C227.427 50.6648 229.593 51.1018 231.489 51.9758C233.385 52.8376 234.887 54.0194 235.995 55.5213C237.115 57.0232 237.706 58.7282 237.767 60.6364H233.336Z" fill="#EF3B2D"/>
<path d="M198.897 51.1818H203.476V78.2159C203.476 80.6288 203.033 82.6785 202.147 84.3651C201.26 86.0516 200.011 87.3319 198.398 88.206C196.785 89.08 194.883 89.5171 192.692 89.5171C190.624 89.5171 188.784 89.1416 187.171 88.3906C185.558 87.6274 184.29 86.544 183.367 85.1406C182.444 83.7372 181.982 82.0691 181.982 80.1364H186.488C186.488 81.2074 186.752 82.143 187.282 82.9432C187.823 83.7311 188.562 84.3466 189.498 84.7898C190.433 85.233 191.498 85.4546 192.692 85.4546C194.009 85.4546 195.13 85.1776 196.053 84.6236C196.976 84.0696 197.678 83.2571 198.158 82.1861C198.65 81.1028 198.897 79.7794 198.897 78.2159V51.1818Z" fill="#EF3B2D"/>
<path d="M162.92 70.1648V67.875C164.976 67.875 166.41 67.4441 167.223 66.5824C168.048 65.7206 168.46 64.2803 168.46 62.2614V56.3523C168.46 54.6534 168.62 53.1823 168.94 51.9389C169.273 50.6956 169.808 49.6676 170.547 48.8551C171.285 48.0426 172.27 47.4394 173.501 47.0455C174.732 46.6515 176.253 46.4545 178.062 46.4545V50.0739C176.634 50.0739 175.508 50.2955 174.683 50.7386C173.871 51.1818 173.292 51.8712 172.947 52.8068C172.615 53.7301 172.449 54.9119 172.449 56.3523V63.7386C172.449 64.6989 172.32 65.5729 172.061 66.3608C171.815 67.1487 171.353 67.8258 170.676 68.392C169.999 68.9583 169.033 69.3954 167.777 69.7031C166.534 70.0109 164.915 70.1648 162.92 70.1648ZM178.062 93.7273C176.253 93.7273 174.732 93.5303 173.501 93.1364C172.27 92.7424 171.285 92.1392 170.547 91.3267C169.808 90.5142 169.273 89.4863 168.94 88.2429C168.62 86.9995 168.46 85.5284 168.46 83.8295V77.9205C168.46 75.9015 168.048 74.4612 167.223 73.5994C166.41 72.7377 164.976 72.3068 162.92 72.3068V70.017C164.915 70.017 166.534 70.1709 167.777 70.4787C169.033 70.7865 169.999 71.2235 170.676 71.7898C171.353 72.3561 171.815 73.0331 172.061 73.821C172.32 74.6089 172.449 75.483 172.449 76.4432V83.8295C172.449 85.2699 172.615 86.4517 172.947 87.375C173.292 88.2983 173.871 88.9815 174.683 89.4247C175.508 89.8802 176.634 90.108 178.062 90.108V93.7273ZM162.92 72.3068V67.875H167.278V72.3068H162.92Z" fill="#EF3B2D"/>
<path d="M139.479 51.6454C139.469 51.6077 139.448 51.5747 139.434 51.5383C139.41 51.4711 139.388 51.403 139.353 51.3413C139.329 51.2998 139.294 51.2659 139.266 51.2278C139.228 51.1777 139.197 51.1242 139.152 51.0801C139.116 51.0433 139.069 51.0167 139.028 50.9846C138.981 50.9482 138.94 50.9066 138.888 50.8767C138.888 50.8767 138.887 50.8767 138.887 50.8762C138.887 50.8762 138.887 50.8758 138.886 50.8754L123.619 42.0856C123.227 41.8595 122.743 41.8595 122.35 42.0856L107.084 50.8745C107.083 50.8745 107.083 50.8749 107.083 50.8754C107.082 50.8754 107.082 50.8754 107.082 50.8758C107.03 50.9058 106.988 50.9473 106.942 50.9837C106.901 51.0158 106.854 51.0428 106.818 51.0792C106.774 51.1233 106.741 51.1769 106.704 51.227C106.676 51.2651 106.641 51.2994 106.617 51.3405C106.582 51.4021 106.56 51.4707 106.535 51.5375C106.522 51.5739 106.501 51.6068 106.491 51.6445C106.462 51.7512 106.447 51.863 106.447 51.9769V68.6702L93.7247 75.9949V43.3375C93.7247 43.224 93.7093 43.1122 93.6806 43.0051C93.6703 42.9675 93.6494 42.9345 93.6361 42.8981C93.6112 42.8308 93.5898 42.7627 93.5543 42.7011C93.5303 42.6595 93.4956 42.6257 93.4673 42.5876C93.4301 42.5375 93.3984 42.4839 93.3539 42.4398C93.3174 42.403 93.2708 42.3764 93.2296 42.3443C93.183 42.3079 93.1414 42.2664 93.0896 42.2364C93.0896 42.2364 93.0892 42.2364 93.0888 42.236C93.0883 42.236 93.0883 42.2355 93.0879 42.2351L77.8215 33.4458C77.4288 33.2197 76.9449 33.2197 76.5521 33.4458L61.2858 42.2351C61.2853 42.2351 61.2853 42.2355 61.2849 42.236C61.2845 42.236 61.284 42.236 61.284 42.2364C61.2322 42.2664 61.1902 42.3079 61.144 42.3443C61.1029 42.3764 61.0562 42.4034 61.0198 42.4398C60.9757 42.4839 60.9436 42.5375 60.9063 42.5876C60.878 42.6257 60.8434 42.66 60.8194 42.7011C60.7838 42.7627 60.7624 42.8313 60.7376 42.8981C60.7243 42.9345 60.7033 42.9675 60.693 43.0051C60.6643 43.1118 60.6489 43.2236 60.6489 43.3375V95.6244C60.6489 96.0797 60.8922 96.4998 61.2866 96.7272L91.8189 114.305C91.8858 114.343 91.9577 114.367 92.0288 114.392C92.0622 114.404 92.093 114.424 92.1273 114.433C92.2339 114.461 92.344 114.475 92.4536 114.475C92.5633 114.475 92.6729 114.461 92.78 114.433C92.8095 114.425 92.8365 114.407 92.8656 114.397C92.941 114.371 93.0172 114.346 93.0879 114.305L123.62 96.7272C124.015 96.5002 124.258 96.0797 124.258 95.6244V78.931L138.887 70.5088C139.281 70.2818 139.524 69.8612 139.524 69.406V51.9769C139.523 51.8638 139.508 51.752 139.479 51.6454ZM92.4498 94.1615L79.7526 86.9756L93.087 79.2985C93.087 79.2985 93.087 79.2985 93.0875 79.2981L107.719 70.8745L120.427 78.191L111.103 83.5135L92.4498 94.1615ZM121.713 61.5024V75.9953L116.37 72.9195L108.991 68.6711V54.1782L114.333 57.254L121.713 61.5024ZM122.985 44.6565L135.701 51.9777L122.985 59.2989L110.268 51.9777L122.985 44.6565ZM83.801 81.7084L78.4583 84.7841V52.8621L85.8378 48.6137L91.1804 45.5379V77.4595L83.801 81.7084ZM77.186 36.0163L89.9025 43.3375L77.186 50.6587L64.4695 43.3375L77.186 36.0163ZM63.192 45.5383L68.5346 48.6141L75.914 52.8625V86.985C75.914 86.9859 75.9144 86.9863 75.9144 86.9872C75.9144 86.988 75.914 86.9889 75.914 86.9897C75.914 87.0385 75.9277 87.0844 75.9333 87.1323C75.9406 87.1949 75.9423 87.2582 75.9586 87.3182C75.959 87.3191 75.959 87.3203 75.9594 87.3212C75.9731 87.3713 75.9997 87.4163 76.0194 87.4642C76.0412 87.5173 76.0571 87.5734 76.0862 87.6231C76.0866 87.6244 76.087 87.6257 76.0879 87.627C76.114 87.6719 76.1517 87.7088 76.183 87.7503C76.2177 87.7953 76.2468 87.8445 76.2875 87.8848C76.2888 87.8861 76.2896 87.8878 76.2909 87.8891C76.3269 87.9246 76.3723 87.9499 76.4125 87.9812C76.4579 88.0167 76.499 88.0574 76.5496 88.0869C76.5513 88.0878 76.5534 88.0882 76.5551 88.0891C76.5568 88.0899 76.5581 88.0916 76.5598 88.0925L91.1804 96.367V111.003L63.1924 94.8895V45.5383H63.192ZM121.713 94.8895L93.7247 111.003V96.364L114.452 84.5319L121.713 80.3876V94.8895ZM136.979 68.6711L124.257 75.9953V61.5024L131.636 57.254L136.979 54.1782V68.6711Z" fill="#EF3B2D"/>
</svg>
